<svg viewBox="0 0 100 100" xmlns="http://www.w3.org/2000/svg">
  <!-- Medical Book (Open) -->
  <path d="M15 30 L15 85 Q15 90 20 90 L50 80 L80 90 Q85 90 85 85 L85 30 Q85 25 80 25 L50 35 L20 25 Q15 25 15 30 Z"
        fill="none" stroke="#9B1B30" stroke-width="4" stroke-linecap="round" stroke-linejoin="round"/>
  <!-- Book center line -->
  <path d="M50 35 L50 80" stroke="#9B1B30" stroke-width="3"/>

  <!-- Caduceus Staff -->
  <path d="M50 8 L50 70" stroke="#9B1B30" stroke-width="4" stroke-linecap="round"/>

  <!-- Staff Top Circle -->
  <circle cx="50" cy="8" r="5" fill="#9B1B30"/>

  <!-- Wings -->
  <path d="M35 18 Q25 12 18 18 Q25 20 35 22 Q30 22 35 18" fill="#9B1B30"/>
  <path d="M65 18 Q75 12 82 18 Q75 20 65 22 Q70 22 65 18" fill="#9B1B30"/>

  <!-- Left Snake -->
  <path d="M50 58 Q35 50 38 40 Q42 30 50 35 Q58 30 62 40 Q65 50 50 58
           M50 58 Q35 50 40 45 Q45 40 50 45 Q55 40 60 45 Q65 50 50 58
           M50 42 Q40 38 42 32 Q46 26 50 30 Q54 26 58 32 Q60 38 50 42"
        fill="none" stroke="#9B1B30" stroke-width="3.5" stroke-linecap="round"/>
</svg>